PathFileType	4	(X/Y/Z)	45_2_33_p1_0-565.trc
DataRate	CameraRate	NumFrames	NumMarkers	Units	OrigDataRate	OrigDataStartFrame	OrigNumFrames
51.0	51.0	4	27	m	51.0	0	566
Frame#	Time	RHip			RKnee			RAnkle			RBigToe			RSmallToe			RHeel			LHip			LKnee			LAnkle			LBigToe			LSmallToe			LHeel			Neck			Head			Nose			RShoulder			RElbow			RWrist			RThumb			RIndex			RPinky			LShoulder			LElbow			LWrist			LThumb			LIndex			LPinky			
		X1	Y1	Z1	X2	Y2	Z2	X3	Y3	Z3	X4	Y4	Z4	X5	Y5	Z5	X6	Y6	Z6	X7	Y7	Z7	X8	Y8	Z8	X9	Y9	Z9	X10	Y10	Z10	X11	Y11	Z11	X12	Y12	Z12	X13	Y13	Z13	X14	Y14	Z14	X15	Y15	Z15	X16	Y16	Z16	X17	Y17	Z17	X18	Y18	Z18	X19	Y19	Z19	X20	Y20	Z20	X21	Y21	Z21	X22	Y22	Z22	X23	Y23	Z23	X24	Y24	Z24	X25	Y25	Z25	X26	Y26	Z26	X27	Y27	Z27	
0	0.0	0.5908902997268669	0.5021779115095664	0.9651901818475048	0.6020996699612207	0.6822614284173149	1.338280163580334	0.5860466882538664	0.8160538363377475	1.6744472244551107	0.5836985307552301	0.6624286920379807	1.750771002978811	0.6402555726735316	0.7112403296078632	1.7499382710992781	0.5709047467262285	0.9332459439510183	1.7230888848090185	0.3794712578888484	0.4726560723287116	0.9818080080231815	0.40246628682844415	0.6804883681416294	1.3415598499079595	0.41697950137397644	0.8368389241516738	1.6938592474866363	0.43225720096908643	0.6761428111007144	1.7602809385728948	0.38209008699034547	0.7342329453999275	1.7668756893925797	0.4307435326983573	0.9167830584946597	1.7402567428081297	0.43799052822381274	0.2779457817042657	0.44573101893891615	0.41746341833609396	0.1697037718992783	0.2178877681117074	0.4299438203900999	0.12085512204884251	0.36587208939558674	0.6080698643561608	0.32241296959959526	0.50764804229042	0.6405141793239887	0.3412706847323559	0.7247229362623593	0.5155074533477173	0.27819977586525324	0.9256421169498115	0.5347413753526696	0.31226485191257486	1.0193635655339208	0.4883594665792287	0.3643358285285548	1.030686651526943	0.47119820135211843	0.35924268556009026	1.027558408898428	0.27977115853173323	0.3261237857413959	0.5134887430024107	0.28447626864072095	0.35297966388974833	0.74742887640258	0.440446014360156	0.3101287452507157	0.9194491002001646	0.5462472108103352	0.33762547085601907	0.9885576220244061	0.5441787337102765	0.322051551434203	1.01692670595718	0.48855302494797015	0.35138979505883133	1.0329691304394877
1	0.0196078431372549	0.5909256749910434	0.5022877213034926	0.9651012229332311	0.6020898862390931	0.6818197723209809	1.3381280029579303	0.5941374357472895	0.8134740171479997	1.6726646724270813	0.5870535612865341	0.6746760656501238	1.7533628770015188	0.6437247103267316	0.7230300535405281	1.7521172693720595	0.5718407083947592	0.9330022068970777	1.727436824006049	0.3795111822488101	0.47277655145941905	0.9820336589531025	0.402195533053839	0.6814206331539174	1.3459975550469871	0.4165366915159341	0.8386118491419748	1.6985954583082727	0.4323606576059522	0.6757811444597598	1.7601960357249933	0.38233016424051547	0.7342866509931096	1.7669978796319359	0.43486324094471257	0.9221235659204247	1.7456024199136346	0.4379894512934486	0.27799254208476804	0.4456995197195729	0.41774320135094706	0.17012332391150894	0.22077889051439795	0.4298747436535159	0.12072173679675613	0.3658561361357443	0.6041283876745327	0.33610817548202016	0.505811005513083	0.6404914014860519	0.34112748903813594	0.7248780864014819	0.5193170117915649	0.26582275207085204	0.9256350680300597	0.5360077664398444	0.3258292610848007	1.0190856213854518	0.47187971792537065	0.3597085771279885	1.0286253720765237	0.45938353533608295	0.3549891599428302	1.0214307803667628	0.27972872172778307	0.32639443344927244	0.5135147258539964	0.2846200735391009	0.35256200497796175	0.7474786456071733	0.4401422891009718	0.3109243569792869	0.9229338266756638	0.5462586931015245	0.32903738401516563	0.9890186543837286	0.543775538732548	0.3366909424033408	1.0169728506376607	0.4891985234937207	0.35263166312038924	1.0364500051529753
2	0.0392156862745098	0.5910034415255744	0.5021560222383009	0.9648888931888234	0.6018848318625597	0.6820714412937996	1.3381926845086614	0.5940767684955132	0.8133437069028105	1.6726330381399088	0.5867480344637733	0.6730877999206771	1.7534468829520677	0.6435635014676547	0.7222515825908681	1.7520583936953154	0.5709392210270847	0.9332520362697655	1.722947405148481	0.37965292940412076	0.4728056545209662	0.9819563076753485	0.4089542419837074	0.6638108631730335	1.3434579886293352	0.4165202140934919	0.8389238506177903	1.6986907439035663	0.4324082972497111	0.6760510158066452	1.7602497370043715	0.38228047769371243	0.7345701822636685	1.7670814679036089	0.43479448413159466	0.9228782597229691	1.7459685798661346	0.4379834783463698	0.2780626665575175	0.4456763519027905	0.4180563409980461	0.1722723182682679	0.2236839538821117	0.42986944463715193	0.12069283806647454	0.36584797118434753	0.6041397735267725	0.33608428976264004	0.5058051629885939	0.6405140234366674	0.3410136844027153	0.7247908916259369	0.5223110316714226	0.2771058656252964	0.9248833730310603	0.5312660383868418	0.3126894712687035	1.0199873160466617	0.47190819636561576	0.35974840221698384	1.0287357141685267	0.45899966696051586	0.35637028683017086	1.0248352194129062	0.2797249563227229	0.3265407920686471	0.513525799170647	0.2847785972893545	0.35217877996367586	0.747639957428228	0.44030598420804484	0.3108264632140889	0.9230053187146702	0.5501809405052841	0.34162441348570516	0.9914980418139331	0.5471918959455099	0.3485466874677778	1.0165267465599632	0.48942729712065935	0.3529818748069184	1.0364832844705025
3	0.058823529411764705	0.5909776093676635	0.5020002107907	0.9649913292174973	0.6019390725660221	0.6820528552081435	1.3381874973549557	0.5918451006338088	0.8010465218323913	1.6745639380104638	0.5829870070051679	0.6595786986602488	1.7508198936479669	0.6435307772194139	0.7223640858462628	1.7520657251207266	0.5709434662834636	0.9332132677812847	1.722956020885918	0.37959387291089985	0.4727545285905741	0.9819856570240894	0.4089438574115064	0.6637686633908274	1.343459446601212	0.4184383486074784	0.8407037111585224	1.6988818336471119	0.43001023428648893	0.6609066864546641	1.757105613659382	0.3821427722915557	0.7344888217346229	1.767000840402774	0.43475982378839223	0.9226611165846933	1.7458957101082486	0.4379628363587678	0.2780375362785837	0.44569823740755654	0.41803394732290716	0.17230876248337854	0.22364580800225983	0.42986489198626127	0.12072426319902387	0.3658656829952026	0.6041540504660555	0.3360217304055061	0.5058166937098245	0.6409704525669124	0.3297865405453323	0.7217825900277284	0.5216825052310784	0.2767112858745904	0.921171279473836	0.5358162084321884	0.325442400555453	1.0191742076141104	0.47194478983200344	0.3598361001569083	1.0286434379946505	0.4588099274847128	0.35617656281345655	1.0245724232018016	0.2746102622585146	0.3391192260380633	0.5119287765252066	0.28473664855471675	0.35207123472439367	0.7477074253813476	0.4403453859681687	0.31085174810976407	0.9231335223217823	0.5502361260641674	0.3418441314336142	0.9915885502964765	0.5472052824301192	0.3486673973299414	1.0165830852971978	0.4896216633572068	0.35291932199072357	1.0365462588459708
